<svg version="1.1" id="Layer_1" xmlns="http://www.w3.org/2000/svg" xmlns:xlink="http://www.w3.org/1999/xlink" x="0px" y="0px"
	 width="100%" viewBox="0 0 520 225" enable-background="new 0 0 520 225" xml:space="preserve">
<path fill="#010101" opacity="1.000000" stroke="none" 
	d="
M363.000000,226.000000 
	C242.040436,226.000000 121.580856,226.000000 1.060644,226.000000 
	C1.060644,151.065628 1.060644,76.131210 1.060644,1.098390 
	C174.209518,1.098390 347.419128,1.098390 520.814331,1.098390 
	C520.814331,75.999626 520.814331,150.999771 520.814331,226.000000 
	C468.464600,226.000000 415.982300,226.000000 363.000000,226.000000 
M25.942488,116.167831 
	C23.701941,121.349693 26.030506,125.892525 28.444096,130.079941 
	C34.268402,140.184784 43.930923,144.020844 54.954777,145.340927 
	C67.346054,146.824753 79.342834,145.862656 89.672546,138.134613 
	C102.115967,128.825226 100.763992,110.180901 86.874557,103.311562 
	C80.003922,99.913528 72.188072,98.438606 64.821609,96.027214 
	C59.338436,94.232307 53.571198,92.943436 48.513111,90.310074 
	C43.099056,87.491386 42.884735,79.648743 47.853020,76.567413 
	C55.447838,71.857124 63.700359,72.372643 71.911095,74.885735 
	C78.126144,76.788025 81.393990,81.169891 81.607285,87.595581 
	C86.902130,87.595581 91.811150,87.595581 96.861893,87.595581 
	C96.894852,79.162689 94.011810,72.534943 88.099129,66.849159 
	C76.416512,55.614864 45.994553,56.599640 34.736946,66.858765 
	C24.057966,76.590584 25.031542,93.353043 37.557755,100.486053 
	C43.622185,103.939415 50.718151,105.624191 57.414711,107.911720 
	C63.317711,109.928169 69.402962,111.433907 75.237297,113.620018 
	C78.755661,114.938347 81.184875,118.093903 80.065117,121.858948 
	C79.210037,124.734093 77.219208,128.421127 74.760994,129.472107 
	C63.727795,134.189194 43.848965,133.025391 40.266682,116.096962 
	C35.837212,116.096962 31.352070,116.096962 25.942488,116.167831 
M168.221695,100.311913 
	C165.908295,92.314583 161.503662,86.070312 153.073212,83.910843 
	C141.542664,80.957291 131.217255,82.343727 124.164711,94.624550 
	C123.131165,89.909149 122.359169,86.387032 121.604500,82.943947 
	C116.795616,82.943947 112.364799,82.943947 107.928734,82.943947 
	C107.928734,112.463669 107.928734,141.674667 107.928734,170.977173 
	C113.514496,170.977173 118.719704,170.977173 124.402328,170.977173 
	C124.402328,159.056381 124.402328,147.510162 124.402328,134.831390 
	C131.974854,145.673004 141.742996,147.459976 152.568237,144.690170 
	C163.098450,141.995850 168.195740,133.964905 169.165863,123.852776 
	C169.885590,116.350761 168.789429,108.674530 168.221695,100.311913 
M329.645264,83.031624 
	C323.545898,84.033417 318.333313,86.678940 315.142670,92.098846 
	C308.117798,104.031868 307.483368,116.853256 311.708435,129.679062 
	C315.828400,142.185867 326.478363,147.602203 339.606476,145.330887 
	C346.555603,144.128601 351.538544,140.227142 355.739197,134.291977 
	C356.725922,137.956665 357.521057,140.909668 358.244659,143.597076 
	C363.014191,143.597076 367.402374,143.597076 371.664917,143.597076 
	C371.664917,115.601181 371.664917,88.022499 371.664917,60.309677 
	C366.033508,60.309677 360.669403,60.309677 355.124878,60.309677 
	C355.124878,71.303917 355.124878,81.984848 355.124878,93.017426 
	C346.089966,83.420387 342.217346,81.882103 329.645264,83.031624 
M416.556732,82.651054 
	C411.801392,82.651054 407.046082,82.651054 401.896240,82.651054 
	C402.233887,84.008591 402.337036,84.811974 402.628845,85.539696 
	C409.090698,101.654274 415.006561,118.022408 422.279449,133.763290 
	C426.209351,142.268875 423.607330,148.837494 419.689148,155.695801 
	C417.897034,158.832718 415.081818,160.716629 411.023346,160.297455 
	C407.930634,159.978012 404.778503,160.234024 401.460754,160.234024 
	C401.460754,164.607834 401.460754,168.484436 401.460754,172.761978 
	C405.239166,172.761978 408.715454,172.589371 412.169250,172.794815 
	C421.942993,173.376221 428.820526,169.322281 432.800293,160.358780 
	C433.746033,158.228714 434.820404,156.154724 435.734314,154.011749 
	C443.235718,136.421707 450.711945,118.820938 458.198578,101.224602 
	C460.755798,95.214134 463.321045,89.207077 466.125366,82.629051 
	C461.121704,82.629051 456.951599,82.368935 452.845490,82.767708 
	C451.373962,82.910614 449.319458,84.352875 448.788635,85.698273 
	C445.283813,94.581573 442.195831,103.628143 438.814728,112.561996 
	C437.273956,116.633209 435.374847,120.568817 433.111847,125.777649 
	C430.705475,118.947952 428.896942,113.615189 426.949585,108.333595 
	C423.801636,99.795708 420.562439,91.291466 416.556732,82.651054 
M187.173553,87.584610 
	C185.788376,88.662125 184.208633,89.563416 183.048355,90.844597 
	C172.255432,102.762337 173.127640,121.403381 179.703049,132.458740 
	C186.008041,143.059418 198.282272,147.680115 213.326797,144.969711 
	C224.915359,142.881927 234.025177,132.852112 233.612076,122.635773 
	C223.201599,121.326157 222.380997,121.602638 216.024353,128.550064 
	C215.799835,128.795456 215.569305,129.039795 215.314896,129.252747 
	C210.880005,132.965088 202.731979,133.711655 197.534164,130.887512 
	C192.333023,128.061554 189.693390,122.471535 190.442429,115.290993 
	C204.936203,115.290993 219.487762,115.290993 234.216248,115.290993 
	C234.966965,102.789780 231.513992,92.565208 220.614807,86.412834 
	C209.759277,80.285110 198.605591,80.810036 187.173553,87.584610 
M242.126266,110.499939 
	C242.126266,121.586555 242.126266,132.673172 242.126266,143.757233 
	C247.861694,143.757233 252.948685,143.757233 258.363159,143.757233 
	C258.363159,134.364609 258.232941,125.220222 258.427643,116.082764 
	C258.504852,112.458084 258.849426,108.714729 259.869873,105.261047 
	C261.845062,98.575935 267.105286,95.762978 274.753265,96.641624 
	C280.767761,97.332611 284.420776,101.262848 285.095703,107.909409 
	C285.297028,109.892174 285.299377,111.900375 285.303284,113.897087 
	C285.322632,123.835419 285.312103,133.773819 285.312103,143.765930 
	C290.789551,143.765930 295.711609,143.765930 300.283325,143.765930 
	C300.283325,129.584549 301.052307,115.599899 300.104401,101.732613 
	C298.656372,80.548874 275.519836,78.610909 264.243774,87.565674 
	C262.018707,89.332710 260.436554,91.909370 258.196075,94.537033 
	C257.280975,90.264595 256.493408,86.587624 255.743805,83.087959 
	C251.057693,83.087959 246.692825,83.087959 242.124405,83.087959 
	C242.124405,92.197006 242.124405,100.848373 242.126266,110.499939 
M398.201019,63.632866 
	C398.360504,61.459908 398.269287,59.758179 395.187195,59.957581 
	C391.228699,60.213688 387.241089,60.019848 383.090515,60.019848 
	C383.090515,88.201424 383.090515,116.043877 383.090515,143.705505 
	C388.464935,143.705505 393.225433,143.705505 398.190948,143.705505 
	C398.190948,117.139610 398.190948,90.873199 398.201019,63.632866 
M477.713440,125.856186 
	C471.945587,126.859970 469.425446,129.939575 469.663269,135.693466 
	C469.867035,140.622314 472.847046,143.742096 477.689667,144.096329 
	C483.393799,144.513580 486.563934,142.291092 486.964630,137.593994 
	C487.728790,128.636108 486.105682,126.361595 477.713440,125.856186 
z"/>
<path fill="#F8F8F8" opacity="1.000000" stroke="none" 
	d="
M26.404709,116.132401 
	C31.352070,116.096962 35.837212,116.096962 40.266682,116.096962 
	C43.848965,133.025391 63.727795,134.189194 74.760994,129.472107 
	C77.219208,128.421127 79.210037,124.734093 80.065117,121.858948 
	C81.184875,118.093903 78.755661,114.938347 75.237297,113.620018 
	C69.402962,111.433907 63.317711,109.928169 57.414711,107.911720 
	C50.718151,105.624191 43.622185,103.939415 37.557755,100.486053 
	C25.031542,93.353043 24.057966,76.590584 34.736946,66.858765 
	C45.994553,56.599640 76.416512,55.614864 88.099129,66.849159 
	C94.011810,72.534943 96.894852,79.162689 96.861893,87.595581 
	C91.811150,87.595581 86.902130,87.595581 81.607285,87.595581 
	C81.393990,81.169891 78.126144,76.788025 71.911095,74.885735 
	C63.700359,72.372643 55.447838,71.857124 47.853020,76.567413 
	C42.884735,79.648743 43.099056,87.491386 48.513111,90.310074 
	C53.571198,92.943436 59.338436,94.232307 64.821609,96.027214 
	C72.188072,98.438606 80.003922,99.913528 86.874557,103.311562 
	C100.763992,110.180901 102.115967,128.825226 89.672546,138.134613 
	C79.342834,145.862656 67.346054,146.824753 54.954777,145.340927 
	C43.930923,144.020844 34.268402,140.184784 28.444096,130.079941 
	C26.030506,125.892525 23.701941,121.349693 26.404709,116.132401 
z"/>
<path fill="#F9F9F9" opacity="1.000000" stroke="none" 
	d="
M168.361908,100.693909 
	C168.789429,108.674530 169.885590,116.350761 169.165863,123.852776 
	C168.195740,133.964905 163.098450,141.995850 152.568237,144.690170 
	C141.742996,147.459976 131.974854,145.673004 124.402328,134.831390 
	C124.402328,147.510162 124.402328,159.056381 124.402328,170.977173 
	C118.719704,170.977173 113.514496,170.977173 107.928734,170.977173 
	C107.928734,141.674667 107.928734,112.463669 107.928734,82.943947 
	C112.364799,82.943947 116.795616,82.943947 121.604500,82.943947 
	C122.359169,86.387032 123.131165,89.909149 124.164711,94.624550 
	C131.217255,82.343727 141.542664,80.957291 153.073212,83.910843 
	C161.503662,86.070312 165.908295,92.314583 168.361908,100.693909 
M153.070206,125.048500 
	C153.656204,120.821976 154.745789,116.593117 154.726257,112.369392 
	C154.681854,102.770233 149.418594,97.101562 140.963226,96.776810 
	C130.720108,96.383392 125.648964,100.752380 124.472923,111.114502 
	C124.249481,113.083344 124.228081,115.108139 124.398102,117.082603 
	C124.977325,123.809250 127.477539,129.492142 134.328751,131.838501 
	C141.199020,134.191391 147.897858,131.784775 153.070206,125.048500 
z"/>
<path fill="#F7F7F7" opacity="1.000000" stroke="none" 
	d="
M330.063416,83.017914 
	C342.217346,81.882103 346.089966,83.420387 355.124878,93.017426 
	C355.124878,81.984848 355.124878,71.303917 355.124878,60.309677 
	C360.669403,60.309677 366.033508,60.309677 371.664917,60.309677 
	C371.664917,88.022499 371.664917,115.601181 371.664917,143.597076 
	C367.402374,143.597076 363.014191,143.597076 358.244659,143.597076 
	C357.521057,140.909668 356.725922,137.956665 355.739197,134.291977 
	C351.538544,140.227142 346.555603,144.128601 339.606476,145.330887 
	C326.478363,147.602203 315.828400,142.185867 311.708435,129.679062 
	C307.483368,116.853256 308.117798,104.031868 315.142670,92.098846 
	C318.333313,86.678940 323.545898,84.033417 330.063416,83.017914 
M350.465210,129.078110 
	C356.197723,122.933846 356.006165,115.426079 354.703979,108.015999 
	C353.265228,99.828644 348.566071,96.607689 339.859894,96.746483 
	C331.613800,96.877930 327.191956,100.419968 325.691223,108.513481 
	C325.152527,111.418785 324.885315,114.490463 325.186096,117.415031 
	C326.393860,129.157959 331.853699,133.484650 343.562775,132.012833 
	C345.748688,131.738068 347.808533,130.460724 350.465210,129.078110 
z"/>
<path fill="#F7F7F7" opacity="1.000000" stroke="none" 
	d="
M416.959259,82.712036 
	C420.562439,91.291466 423.801636,99.795708 426.949585,108.333595 
	C428.896942,113.615189 430.705475,118.947952 433.111847,125.777649 
	C435.374847,120.568817 437.273956,116.633209 438.814728,112.561996 
	C442.195831,103.628143 445.283813,94.581573 448.788635,85.698273 
	C449.319458,84.352875 451.373962,82.910614 452.845490,82.767708 
	C456.951599,82.368935 461.121704,82.629051 466.125366,82.629051 
	C463.321045,89.207077 460.755798,95.214134 458.198578,101.224602 
	C450.711945,118.820938 443.235718,136.421707 435.734314,154.011749 
	C434.820404,156.154724 433.746033,158.228714 432.800293,160.358780 
	C428.820526,169.322281 421.942993,173.376221 412.169250,172.794815 
	C408.715454,172.589371 405.239166,172.761978 401.460754,172.761978 
	C401.460754,168.484436 401.460754,164.607834 401.460754,160.234024 
	C404.778503,160.234024 407.930634,159.978012 411.023346,160.297455 
	C415.081818,160.716629 417.897034,158.832718 419.689148,155.695801 
	C423.607330,148.837494 426.209351,142.268875 422.279449,133.763290 
	C415.006561,118.022408 409.090698,101.654274 402.628845,85.539696 
	C402.337036,84.811974 402.233887,84.008591 401.896240,82.651054 
	C407.046082,82.651054 411.801392,82.651054 416.959259,82.712036 
z"/>
<path fill="#F8F8F8" opacity="1.000000" stroke="none" 
	d="
M187.490326,87.371788 
	C198.605591,80.810036 209.759277,80.285110 220.614807,86.412834 
	C231.513992,92.565208 234.966965,102.789780 234.216248,115.290993 
	C219.487762,115.290993 204.936203,115.290993 190.442429,115.290993 
	C189.693390,122.471535 192.333023,128.061554 197.534164,130.887512 
	C202.731979,133.711655 210.880005,132.965088 215.314896,129.252747 
	C215.569305,129.039795 215.799835,128.795456 216.024353,128.550064 
	C222.380997,121.602638 223.201599,121.326157 233.612076,122.635773 
	C234.025177,132.852112 224.915359,142.881927 213.326797,144.969711 
	C198.282272,147.680115 186.008041,143.059418 179.703049,132.458740 
	C173.127640,121.403381 172.255432,102.762337 183.048355,90.844597 
	C184.208633,89.563416 185.788376,88.662125 187.490326,87.371788 
M190.973602,107.806946 
	C199.917816,107.806946 208.862030,107.806946 218.172150,107.806946 
	C218.001099,106.505394 218.028397,105.191345 217.640182,104.014343 
	C215.626175,97.908112 210.580383,94.665848 203.815536,95.000420 
	C196.581818,95.358177 192.757980,98.838455 190.973602,107.806946 
z"/>
<path fill="#F8F8F8" opacity="1.000000" stroke="none" 
	d="
M242.125336,109.999847 
	C242.124405,100.848373 242.124405,92.197006 242.124405,83.087959 
	C246.692825,83.087959 251.057693,83.087959 255.743805,83.087959 
	C256.493408,86.587624 257.280975,90.264595 258.196075,94.537033 
	C260.436554,91.909370 262.018707,89.332710 264.243774,87.565674 
	C275.519836,78.610909 298.656372,80.548874 300.104401,101.732613 
	C301.052307,115.599899 300.283325,129.584549 300.283325,143.765930 
	C295.711609,143.765930 290.789551,143.765930 285.312103,143.765930 
	C285.312103,133.773819 285.322632,123.835419 285.303284,113.897087 
	C285.299377,111.900375 285.297028,109.892174 285.095703,107.909409 
	C284.420776,101.262848 280.767761,97.332611 274.753265,96.641624 
	C267.105286,95.762978 261.845062,98.575935 259.869873,105.261047 
	C258.849426,108.714729 258.504852,112.458084 258.427643,116.082764 
	C258.232941,125.220222 258.363159,134.364609 258.363159,143.757233 
	C252.948685,143.757233 247.861694,143.757233 242.126266,143.757233 
	C242.126266,132.673172 242.126266,121.586555 242.125336,109.999847 
z"/>
<path fill="#FBFBFB" opacity="1.000000" stroke="none" 
	d="
M398.195984,64.119827 
	C398.190948,90.873199 398.190948,117.139610 398.190948,143.705505 
	C393.225433,143.705505 388.464935,143.705505 383.090515,143.705505 
	C383.090515,116.043877 383.090515,88.201424 383.090515,60.019848 
	C387.241089,60.019848 391.228699,60.213688 395.187195,59.957581 
	C398.269287,59.758179 398.360504,61.459908 398.195984,64.119827 
z"/>
<path fill="#F04439" opacity="1.000000" stroke="none" 
	d="
M478.138794,125.839249 
	C486.105682,126.361595 487.728790,128.636108 486.964630,137.593994 
	C486.563934,142.291092 483.393799,144.513580 477.689667,144.096329 
	C472.847046,143.742096 469.867035,140.622314 469.663269,135.693466 
	C469.425446,129.939575 471.945587,126.859970 478.138794,125.839249 
z"/>
<path fill="#030303" opacity="1.000000" stroke="none" 
	d="
M152.932861,125.423973 
	C147.897858,131.784775 141.199020,134.191391 134.328751,131.838501 
	C127.477539,129.492142 124.977325,123.809250 124.398102,117.082603 
	C124.228081,115.108139 124.249481,113.083344 124.472923,111.114502 
	C125.648964,100.752380 130.720108,96.383392 140.963226,96.776810 
	C149.418594,97.101562 154.681854,102.770233 154.726257,112.369392 
	C154.745789,116.593117 153.656204,120.821976 152.932861,125.423973 
z"/>
<path fill="#020202" opacity="1.000000" stroke="none" 
	d="
M350.195892,129.362091 
	C347.808533,130.460724 345.748688,131.738068 343.562775,132.012833 
	C331.853699,133.484650 326.393860,129.157959 325.186096,117.415031 
	C324.885315,114.490463 325.152527,111.418785 325.691223,108.513481 
	C327.191956,100.419968 331.613800,96.877930 339.859894,96.746483 
	C348.566071,96.607689 353.265228,99.828644 354.703979,108.015999 
	C356.006165,115.426079 356.197723,122.933846 350.195892,129.362091 
z"/>
<path fill="#030303" opacity="1.000000" stroke="none" 
	d="
M190.824997,107.383003 
	C192.757980,98.838455 196.581818,95.358177 203.815536,95.000420 
	C210.580383,94.665848 215.626175,97.908112 217.640182,104.014343 
	C218.028397,105.191345 218.001099,106.505394 218.172150,107.806946 
	C208.862030,107.806946 199.917816,107.806946 190.824997,107.383003 
z"/>
</svg>